<svg width="20" height="20" viewBox="0 0 20 20" fill="none" xmlns="http://www.w3.org/2000/svg">
<g opacity="0.64">
<path fill-rule="evenodd" clip-rule="evenodd" d="M3.33334 10C3.33334 13.6819 6.3181 16.6667 10 16.6667C13.6819 16.6667 16.6667 13.6819 16.6667 10C16.6667 6.31814 13.6819 3.33337 10 3.33337C6.3181 3.33337 3.33334 6.31814 3.33334 10ZM10.0352 5.92597H9.97261C9.77908 5.92597 9.61817 6.07497 9.60333 6.26794L9.28274 10.4356C9.26912 10.6127 9.38318 10.7746 9.55457 10.8213L12.976 11.7544C13.0003 11.7611 13.0253 11.7644 13.0505 11.7644C13.2067 11.7644 13.3333 11.6378 13.3333 11.4815V11.3261C13.3333 11.1932 13.2621 11.0705 13.1467 11.0045L10.7407 9.62967L10.4037 6.25949C10.3848 6.07015 10.2255 5.92597 10.0352 5.92597Z" fill="#010F07"/>
</g>
</svg>
