<svg width="16" height="16" viewBox="0 0 16 16" fill="none" xmlns="http://www.w3.org/2000/svg">
<path fill-rule="evenodd" clip-rule="evenodd" d="M10.6667 12C8.45752 12 6.66666 10.2091 6.66666 8C6.66666 5.79086 8.45752 4 10.6667 4C12.8758 4 14.6667 5.79086 14.6667 8C14.6667 10.2091 12.8758 12 10.6667 12ZM10.6502 5.55556H10.6878C10.8019 5.55556 10.8975 5.64207 10.9089 5.75567L11.1111 7.77778L12.5547 8.60268C12.6239 8.64225 12.6667 8.71588 12.6667 8.79563V8.88889C12.6667 8.98263 12.5907 9.05862 12.4969 9.05862C12.4818 9.05862 12.4668 9.05661 12.4523 9.05264L10.3994 8.49277C10.2966 8.46472 10.2281 8.36761 10.2363 8.26133L10.4287 5.76073C10.4376 5.64496 10.5341 5.55556 10.6502 5.55556ZM5.11111 4.88889H2.88888C2.52069 4.88889 2.22222 5.18737 2.22222 5.55556C2.22222 5.92375 2.52069 6.22222 2.88888 6.22222H5.11111C5.4793 6.22222 5.77777 5.92375 5.77777 5.55556C5.77777 5.18737 5.4793 4.88889 5.11111 4.88889ZM5.11111 10.2222H2.88888C2.52069 10.2222 2.22222 10.5207 2.22222 10.8889C2.22222 11.2571 2.52069 11.5556 2.88888 11.5556H5.11111C5.4793 11.5556 5.77777 11.2571 5.77777 10.8889C5.77777 10.5207 5.4793 10.2222 5.11111 10.2222ZM1.99999 7.55556H3.77777C4.14596 7.55556 4.44444 7.85403 4.44444 8.22222C4.44444 8.59041 4.14596 8.88889 3.77777 8.88889H1.99999C1.63181 8.88889 1.33333 8.59041 1.33333 8.22222C1.33333 7.85403 1.63181 7.55556 1.99999 7.55556Z" fill="white"/>
</svg>
