<svg width="16" height="16" viewBox="0 0 16 16" fill="none" xmlns="http://www.w3.org/2000/svg">
<path fill-rule="evenodd" clip-rule="evenodd" d="M14.6667 7.99992C14.6667 11.6818 11.6819 14.6666 8 14.6666C4.3181 14.6666 1.33333 11.6818 1.33333 7.99992C1.33333 4.31802 4.3181 1.33325 8 1.33325C11.6819 1.33325 14.6667 4.31802 14.6667 7.99992ZM8.0408 2.99992C7.7423 2.99992 7.50032 3.2419 7.50032 3.54039V4.25762C7.45974 4.26646 7.4192 4.27591 7.37872 4.28597C7.04326 4.36931 6.74204 4.50097 6.47504 4.68097C6.20804 4.86097 5.9924 5.09097 5.82809 5.37097C5.66379 5.65097 5.58163 5.98764 5.58163 6.38097C5.58163 6.70097 5.63469 6.97264 5.7408 7.19597C5.84692 7.41931 5.98726 7.6093 6.16184 7.76597C6.33641 7.92264 6.53494 8.05097 6.75744 8.15097C6.97994 8.25097 7.20757 8.33764 7.44033 8.41097C7.67994 8.4843 7.89388 8.55264 8.08215 8.61597C8.27041 8.6793 8.42787 8.7493 8.55452 8.82597C8.68118 8.90264 8.77873 8.98764 8.84719 9.08097C8.91565 9.1743 8.94988 9.28764 8.94988 9.42097C8.94988 9.56097 8.9225 9.68097 8.86773 9.78097C8.81296 9.88097 8.73937 9.96097 8.64694 10.021C8.55452 10.081 8.4467 10.1243 8.32347 10.151C8.20024 10.1776 8.07359 10.191 7.94352 10.191C7.65598 10.191 7.36674 10.1193 7.07578 9.97597C6.78482 9.83264 6.55035 9.65431 6.37235 9.44097L5.22222 10.581C5.54398 10.9076 5.94789 11.1593 6.43397 11.336C6.78071 11.462 7.13616 11.5431 7.50032 11.5792V12.4594C7.50032 12.7579 7.7423 12.9999 8.0408 12.9999C8.3393 12.9999 8.58128 12.7579 8.58128 12.4594V11.5492C8.71599 11.527 8.84913 11.4976 8.98069 11.461C9.31615 11.3676 9.61395 11.2243 9.8741 11.031C10.1342 10.8376 10.3413 10.5926 10.4954 10.296C10.6494 9.9993 10.7264 9.64764 10.7264 9.24097C10.7264 8.88764 10.6545 8.59264 10.5108 8.35597C10.367 8.1193 10.1856 7.92097 9.96652 7.76097C9.74744 7.60097 9.50441 7.47264 9.23742 7.37597C8.97042 7.2793 8.7137 7.19097 8.46724 7.11097C8.29609 7.05764 8.14205 7.00597 8.00513 6.95597C7.86821 6.90597 7.75012 6.85097 7.65085 6.79097C7.55158 6.73097 7.47627 6.66097 7.42493 6.58097C7.37358 6.50097 7.34791 6.40097 7.34791 6.28097C7.34791 6.14097 7.38043 6.02597 7.44547 5.93597C7.5105 5.84597 7.59094 5.77264 7.68679 5.71597C7.78263 5.6593 7.89046 5.62097 8.01026 5.60097C8.13007 5.58097 8.24816 5.57097 8.36455 5.57097C8.59047 5.57097 8.82494 5.62597 9.06798 5.73597C9.31101 5.84597 9.50783 5.9943 9.65845 6.18097L10.7778 5.03097C10.456 4.7443 10.0812 4.52764 9.65331 4.38097C9.28979 4.25636 8.93245 4.18469 8.58128 4.16595V3.54039C8.58128 3.2419 8.3393 2.99992 8.0408 2.99992Z" fill="white"/>
</svg>
