<svg width="20" height="20" viewBox="0 0 20 20" fill="none" xmlns="http://www.w3.org/2000/svg">
<g opacity="0.64">
<path fill-rule="evenodd" clip-rule="evenodd" d="M18.3333 9.99996C18.3333 14.6023 14.6024 18.3333 10 18.3333C5.39763 18.3333 1.66667 14.6023 1.66667 9.99996C1.66667 5.39759 5.39763 1.66663 10 1.66663C14.6024 1.66663 18.3333 5.39759 18.3333 9.99996ZM10.051 3.74996C9.67789 3.74996 9.37541 4.05243 9.37541 4.42555V5.32209C9.32468 5.33314 9.27401 5.34495 9.22341 5.35753C8.80408 5.46169 8.42756 5.62627 8.09381 5.85128C7.76007 6.07628 7.49051 6.36377 7.28512 6.71378C7.07974 7.06378 6.97705 7.48461 6.97705 7.97628C6.97705 8.37628 7.04337 8.71586 7.17601 8.99502C7.30866 9.27419 7.48409 9.51169 7.7023 9.70753C7.92052 9.90336 8.16869 10.0638 8.44681 10.1888C8.72493 10.3138 9.00947 10.4221 9.30042 10.5138C9.59994 10.6054 9.86736 10.6909 10.1027 10.77C10.338 10.8492 10.5348 10.9367 10.6932 11.0325C10.8515 11.1284 10.9734 11.2346 11.059 11.3513C11.1446 11.4679 11.1874 11.6096 11.1874 11.7763C11.1874 11.9513 11.1531 12.1013 11.0847 12.2263C11.0162 12.3513 10.9242 12.4513 10.8087 12.5263C10.6932 12.6013 10.5584 12.6554 10.4043 12.6888C10.2503 12.7221 10.092 12.7388 9.9294 12.7388C9.56998 12.7388 9.20843 12.6492 8.84474 12.47C8.48104 12.2909 8.18795 12.0679 7.96545 11.8013L6.52778 13.2263C6.92999 13.6346 7.43488 13.9492 8.04247 14.17C8.4759 14.3276 8.92021 14.4289 9.37541 14.4741V15.5744C9.37541 15.9475 9.67789 16.25 10.051 16.25C10.4241 16.25 10.7266 15.9475 10.7266 15.5744V14.4366C10.895 14.4088 11.0614 14.372 11.2259 14.3263C11.6452 14.2096 12.0174 14.0304 12.3426 13.7888C12.6678 13.5471 12.9267 13.2409 13.1192 12.87C13.3118 12.4992 13.408 12.0596 13.408 11.5513C13.408 11.1096 13.3182 10.7409 13.1385 10.445C12.9588 10.1492 12.732 9.90128 12.4582 9.70128C12.1843 9.50127 11.8805 9.34086 11.5468 9.22003C11.213 9.09919 10.8921 8.98878 10.5841 8.88878C10.3701 8.82211 10.1776 8.75753 10.0064 8.69503C9.83527 8.63253 9.68765 8.56378 9.56357 8.48878C9.43948 8.41377 9.34535 8.32628 9.28117 8.22628C9.21699 8.12628 9.1849 8.00128 9.1849 7.85128C9.1849 7.67627 9.22555 7.53253 9.30684 7.42002C9.38814 7.30752 9.48869 7.21586 9.6085 7.14503C9.7283 7.07419 9.86308 7.02628 10.0128 7.00128C10.1626 6.97628 10.3102 6.96378 10.4557 6.96378C10.7381 6.96378 11.0312 7.03252 11.335 7.17002C11.6388 7.30753 11.8848 7.49294 12.0731 7.72628L13.4722 6.28878C13.07 5.93044 12.6015 5.65961 12.0666 5.47627C11.6122 5.32052 11.1656 5.23092 10.7266 5.2075V4.42555C10.7266 4.05243 10.4241 3.74996 10.051 3.74996Z" fill="#868686"/>
</g>
</svg>
