<svg width="24" height="24" viewBox="0 0 24 24" fill="none" xmlns="http://www.w3.org/2000/svg">
<g opacity="0.64">
<path fill-rule="evenodd" clip-rule="evenodd" d="M3.66663 7.83329C3.66663 6.91282 4.41282 6.16663 5.33329 6.16663H18.6666C19.5871 6.16663 20.3333 6.91282 20.3333 7.83329V8.66663H3.66663V7.83329ZM3.66663 11.1666H20.3333V16.1666C20.3333 17.0871 19.5871 17.8333 18.6666 17.8333H5.33329C4.41282 17.8333 3.66663 17.0871 3.66663 16.1666V11.1666ZM16.1666 13.6666C15.7064 13.6666 15.3333 14.0397 15.3333 14.5C15.3333 14.9602 15.7064 15.3333 16.1666 15.3333H17.8333C18.2935 15.3333 18.6666 14.9602 18.6666 14.5C18.6666 14.0397 18.2935 13.6666 17.8333 13.6666H16.1666Z" fill="#010F07"/>
</g>
</svg>
