<svg width="307" height="238" viewBox="0 0 307 238" fill="none" xmlns="http://www.w3.org/2000/svg">
<path fill-rule="evenodd" clip-rule="evenodd" d="M77.4041 142.32C78.9672 141.255 82.1634 137.441 83.838 136.56C87.5619 134.601 104.151 130.749 104.691 130.521C105.512 130.175 110.849 128.963 113.958 128.198C121.26 126.401 147.425 114.795 154.322 111.819C155.203 114.136 162.471 124.363 161.224 125.411C157.119 128.862 149.761 133.158 145.005 135.631C141.159 137.631 137.086 139.286 132.973 140.637C128.304 142.172 125.099 143.817 120.446 145.387C115.867 146.931 121.339 151.761 123.69 152.759C126.327 153.878 130.412 154.447 133.107 155.417C128.362 162.791 124.378 171.74 123.581 180.572C123.389 182.698 121.769 184.647 119.133 184.01C117.773 183.682 105.224 182.011 103.178 181.544C89.5174 178.429 64.9946 162.115 71.3097 145.387C72.7563 146.055 76.0593 143.237 77.4041 142.32Z" fill="#F8B64C"/>
<mask id="path-2-inside-1_1_2041" fill="white">
<path fill-rule="evenodd" clip-rule="evenodd" d="M85.0462 53.5659C86.0667 53.4799 88.7055 51.4414 87.3208 50.4102C85.9241 49.37 84.9204 52.8562 85.0462 53.5659ZM31.8868 61.3842C32.1536 61.337 32.0371 59.8773 31.6173 59.6909C30.2915 59.1023 30.1797 61.3142 30.1472 61.9061C30.107 62.653 30.0133 64.7572 31.6253 64.1804C32.5403 63.8529 31.9725 61.944 31.8868 61.3842ZM110.145 68.2038C110.109 69.5068 112.741 72.0124 113.723 70.5095C114.548 69.2467 110.213 65.6099 110.145 68.2038ZM17.0741 38.8166C17.8368 40.7623 21.6088 38.1108 21.7491 36.6836C22.0367 33.7609 17.0346 36.8721 17.0741 38.8166ZM48.5437 47.205C50.3004 47.0607 52.6117 44.8273 54.3058 43.993C55.4521 43.4286 58.5713 42.7557 58.9104 41.4738C59.2057 40.3599 53.9134 42.7439 53.4614 42.9559C51.3854 43.9284 49.5136 45.0372 48.5437 47.205ZM180.416 31.8048C181.816 30.7221 183.518 30.0237 185.313 30.0696C186.209 30.0923 188.079 30.6531 188.149 29.103C188.263 26.5828 180.348 29.6564 179.111 30.1509C179.546 30.7027 179.981 31.2537 180.416 31.8048ZM93.0704 130.027C92.0433 128.321 90.1959 127.335 88.8066 125.88C89.3158 128.269 88.1678 130.395 87.379 132.576C89.2766 131.726 91.1732 130.877 93.0704 130.027ZM271.447 166.389C272.013 164.495 272.58 162.611 273.242 160.745C273.982 158.656 274.351 158.476 272.578 157.015C271.107 159.796 269.635 162.576 268.164 165.357C269.212 165.803 270.305 166.236 271.447 166.389ZM119.184 29.2487C117.236 27.0531 108.107 26.9152 109.237 31.7609C109.631 33.4529 111.875 31.6555 113.281 31.2611C114.677 30.8694 118.628 30.8175 119.184 29.2487ZM118.849 60.3336C118.613 59.7732 118.142 57.7508 117.442 57.5914C116.76 57.4361 114.071 59.5573 113.565 59.881C111.043 61.497 108.585 63.2356 106.127 64.9487C107.068 64.9487 107.923 64.6136 108.858 64.6065C109.969 64.5968 110.767 65.0535 111.85 64.793C114.179 64.2339 116.881 61.6537 118.849 60.3336ZM121.372 10.2345C121.591 9.23026 133.004 12.2449 134.376 12.797C135.123 13.0972 138.979 15.1016 138.151 12.0807C137.679 10.3602 133.223 9.0486 131.796 8.57706C128.165 7.37889 124.338 6.52662 120.473 6.72428C119.722 6.76238 114.038 7.0904 116.412 9.37519C117.23 10.162 120.161 9.91403 121.372 10.2345ZM123.871 148.215C125.997 149.261 128.168 150.061 130.391 150.879C131.378 151.243 132.917 152.194 134.006 151.955C134.898 151.759 135.184 150.4 135.653 149.491C137.366 146.164 139.412 143.48 141.949 140.737C140.771 139.878 134.791 143.667 133.311 144.227C131.83 144.787 130.433 145.351 128.983 146.02C127.618 146.65 124.924 147.214 123.871 148.215ZM161.522 119.854C164.621 118.451 167.559 115.965 170.101 113.738C173.019 111.181 175.635 108.502 177.772 105.194C176.486 105.259 173.648 109.395 173.616 104.892C173.599 102.596 176.747 100.334 177.724 98.2034C175.294 96.8315 173.066 105.029 170.278 103.042C167.592 101.127 171.83 94.5445 172.647 92.4675C171.071 91.4193 162.095 103.152 160.796 104.653C159.983 105.593 158.062 106.844 157.603 107.94C157.33 108.593 157.291 110.664 157.423 111.264C157.698 112.519 159.09 114.022 159.71 115.191C160.495 116.671 161.178 118.209 161.522 119.854ZM289.643 162.155C286.963 158.372 289.731 156.722 291.91 153.583C293.653 151.071 295.256 148.303 296.361 145.498C299.124 138.483 301.617 131.961 302.982 124.541C301.104 125.398 299.93 128.661 298.991 130.38C297.727 132.691 296.616 135.117 295.212 137.356C292.584 141.547 290.005 146.017 286.663 149.649C285.148 151.295 283.866 153.147 282.119 154.63C281.321 155.307 279.794 155.863 279.206 156.711C278.651 157.511 279.272 158.022 279.061 158.977C278.845 159.958 277.853 161.003 277.428 161.947C276.869 163.186 276.348 164.429 275.724 165.641C275.044 166.963 274.858 167.655 274.675 168.947C274.474 170.359 275.089 170.506 273.855 171.808C276.091 172.794 278.327 173.779 280.562 174.765C281.316 175.098 282.071 175.43 282.826 175.763C282.985 175.465 283.144 175.167 283.303 174.869C283.917 174.272 284.482 172.801 284.833 172.012C286.302 168.723 287.961 165.421 289.643 162.155ZM73.7602 146.275C67.4123 162.987 89.7189 177.059 103.45 180.171C105.352 180.602 107.208 181.166 109.101 181.629C111.166 182.133 112.999 182.033 115.059 182.244C116.698 182.412 117.48 183.679 119.024 184.028C121.606 184.611 121.448 182.671 121.633 180.592C122.416 171.779 126.914 163.276 131.675 155.922C129.5 155.144 127.346 154.295 125.199 153.443C123.362 152.714 120.549 150.665 118.574 150.556C117.114 150.476 114.888 151.723 113.47 152.271C111.108 153.182 108.738 153.959 106.276 154.581C101.971 155.668 97.1803 157.149 92.7252 157.262C91.4407 157.294 87.9174 157.892 86.9934 157.098C85.231 155.585 87.677 154.323 89.1524 153.783C97.9456 150.563 107.282 149.194 116.1 145.893C120.637 144.194 125.128 142.297 129.694 140.623C133.631 139.18 137.753 137.903 141.557 136.128C146.58 133.785 151.625 130.867 155.975 127.428C156.846 126.74 158.67 125.718 159.267 124.721C159.792 123.843 159.727 124.719 159.618 123.654C159.539 122.89 158.604 121.854 158.219 121.132C156.786 118.439 155.49 115.673 154.401 112.823C147.462 115.799 140.861 119.85 134.024 123.031C127.143 126.232 119.381 128.491 112.019 130.292C108.886 131.059 105.284 131.301 102.411 132.816C101.19 133.459 99.9828 134.204 98.6751 134.576C98.2887 135.317 97.9088 135.463 97.5341 135.012C97.2994 134.748 96.9961 134.637 96.6238 134.678C95.824 134.814 95.0082 135.191 94.2602 135.482C90.4741 136.949 86.8487 138.787 83.2545 140.663C81.5507 141.551 79.8031 142.426 78.1727 143.441C77.2989 143.985 76.5159 144.533 75.8008 145.28C74.9434 146.176 75.1476 146.912 73.7602 146.275ZM216.6 47.0476C218.204 47.0737 219.666 46.2046 221.339 46.2532C223.97 46.3292 226.052 48.3687 227.579 50.3356C230.6 54.2271 229.83 58.9219 228.312 63.2771C227.586 65.3585 226.589 67.3565 225.343 69.1784C224.241 70.7914 222.269 72.317 221.499 74.1128C220.23 77.0747 222.791 75.8152 224.359 75.1828C226.33 74.3867 228.179 73.3974 229.852 72.0646C237.31 66.1248 242.983 57.8686 244.884 48.3868C245.811 43.7607 245.74 38.3525 242.517 34.5768C239.571 31.1242 234.485 29.9963 230.138 30.6364C225.438 31.3287 221.179 33.3194 217.352 35.8815C216.241 36.626 215.223 37.4389 214.18 38.2715C212.81 39.3639 211.99 39.3924 212.333 41.1045C212.587 42.3773 213.28 43.6964 213.727 44.9177C214.563 47.2053 214.258 47.7972 216.6 47.0476ZM221.715 86.4859L221.39 87.0406C223.628 87.1471 225.712 85.1732 227.618 84.2096C230.095 82.9572 232.294 81.2488 234.465 79.5236C238.292 76.4808 242.169 73.0515 245.018 69.0569C251.405 60.1023 257.206 48.7493 255.463 37.3961C253.585 25.1599 242.883 20.4497 231.479 22.0696C226.339 22.7995 221.751 25.094 217.152 27.4234C214.833 28.5975 212.877 30.1211 210.753 31.5955C209.651 32.3612 208.645 32.4606 208.573 33.7991C208.519 34.8078 210.263 37.0891 210.734 38.003C216.509 32.1121 222.732 27.2386 231.453 26.9373C241.828 26.5791 247.963 36.4165 247.918 45.8367C247.873 55.0751 243.889 63.9617 237.537 70.6012C234.65 73.6187 231.898 76.0398 228.353 78.2421C226.586 79.3398 225.283 80.3254 223.307 81.0543C221.91 81.5702 222.055 81.2983 221.699 82.592C221.396 83.6897 221.705 85.3459 221.715 86.4859ZM165.34 212.001C165.204 213.666 164.866 215.305 164.49 216.929C164.354 217.512 163.593 219.353 163.726 220.008C163.947 221.092 163.653 220.395 164.603 220.96C165.593 221.551 166.746 221.515 167.83 221.694C168.5 221.805 170.952 222.959 171.364 222.777C172.085 222.458 172.063 221.335 172.854 220.889C173.932 220.282 175.52 220.802 176.537 221.277C179.256 222.545 181.124 225.17 183.754 226.607C188.426 229.159 193.969 230.571 199.181 231.154C202.004 231.47 204.894 232.024 207.682 231.362C209.879 230.841 212.734 230.889 213.929 228.532C203.315 225.613 187.116 222.041 182.92 209.862C180.639 211.93 176.827 210.816 174.07 210.53C171.037 210.216 168.327 210.289 165.553 208.907C165.351 209.994 165.289 210.896 165.34 212.001ZM71.3712 136.567C76.3672 136.869 81.1038 134.505 84.1781 130.516C84.9351 129.533 85.7111 128.53 86.1654 127.366C86.2642 127.071 86.3623 126.776 86.4607 126.481C86.9378 125.667 86.7289 125.282 85.8347 125.328C85.3308 124.637 84.0533 124.405 84.4168 123.152C84.6904 122.208 85.7004 122.192 86.5782 121.895C86.141 121.16 85.8795 120.792 85.2538 120.139C83.6277 121.601 80.6766 124.472 79.534 121.112C78.9849 119.499 79.9511 117.957 79.7117 116.4C79.6133 115.757 78.7974 114.112 78.3244 113.728C75.8058 111.677 72.1784 112.526 69.5061 113.733C67.6644 114.565 67.268 114.955 66.9677 116.862C66.6628 118.801 66.3795 120.74 66.0411 122.673C67.1462 122.097 67.3474 120.853 68.0682 119.957C68.338 120.449 68.6082 120.941 68.879 121.432C69.2594 121.219 69.6146 121.23 69.944 121.466C70.4773 122.286 70.1419 123.502 69.9778 124.362C71.7562 124.196 72.5078 126.18 70.715 126.983C68.8579 127.816 68.0203 125.546 67.9574 124.077C67.2644 124.904 66.5526 124.461 66.0695 124.887C65.5871 125.312 65.3969 126.198 65.2252 127.169C64.943 128.763 64.2208 131.064 64.8891 132.663C65.881 135.039 69.0438 136.276 71.3712 136.567ZM216.142 60.2533C214.489 62.5523 211.67 65.5617 211.081 68.3391C212.902 67.2708 216.751 62.1294 217.743 66.2249C218.313 68.5758 215.393 71.3769 214.675 73.6531C217.547 72.7084 219.592 69.7495 221.384 67.4659C223.668 64.5543 226.001 60.7163 226.584 57.0139C227.055 54.0179 224.977 51.2254 221.889 50.9318C220.312 50.7818 218.664 51.0323 217.14 51.3982C216.445 51.5646 215.409 51.7715 214.789 52.1438C214.01 52.6115 213.903 53.7062 213.17 52.7956C212.195 54.6326 211.22 56.4695 210.246 58.3058C211.216 57.954 213.195 56.4602 214.255 56.6145C215.803 56.8405 216.121 59.0889 216.142 60.2533ZM61.3597 15.2812C57.0259 15.4089 52.4959 16.3318 48.3931 17.7037C47.3743 18.0447 43.076 19.2573 43.9813 21.0153C44.5795 22.1772 47.8052 20.5353 48.7804 20.2615C52.9599 19.0878 57.2633 18.3138 61.5442 17.6074C62.5807 17.4364 66.097 17.4533 66.2784 16.0946C66.5007 14.4367 62.5837 15.2793 61.3597 15.2812ZM179.31 204.376C176.96 204.663 174.705 204.556 172.354 204.268C170.375 204.026 168.36 203.216 166.391 203.216C166.391 205.323 166.248 205.337 168.471 205.788C170.024 206.103 171.598 206.279 173.166 206.499C175.928 206.885 178.993 207.969 181.789 207.412C181.721 207.046 181.507 204.576 181.217 204.332C181.054 204.195 179.547 204.378 179.31 204.376ZM141.344 48.436C142.001 48.8545 143.51 50.5234 144.293 50.5528C144.014 48.6208 141.858 45.2568 139.382 46.4507C138.776 46.7436 137.502 48.2013 138.078 48.8444C138.386 49.1883 140.539 48.4383 141.344 48.436ZM118.441 65.6239C118.465 65.2872 118.489 64.9504 118.514 64.6139C117.606 65.1479 116.481 65.4006 115.836 66.261C116.611 66.6045 117.385 66.9484 118.161 67.2922C118.254 66.7361 118.348 66.18 118.441 65.6239ZM189.977 116.919C194.269 118.422 198.203 120.43 201.362 123.837C204.093 126.783 205.376 131.974 206.043 135.836C207.692 145.393 204.509 154.251 202.411 163.394C201.346 168.032 199.757 172.495 198.269 177.013C196.97 180.958 195.855 185.089 194.062 188.841C192.541 192.021 190.599 195.157 189.261 198.457C188.541 200.233 187.374 206.327 184.642 204.413C183.896 206.362 183.715 206.196 184.512 207.551C185.089 208.531 187.046 209.892 187.969 210.69C190.43 212.818 193.547 214.572 196.434 216.061C201.721 218.79 207.389 220.832 212.835 223.32C215.242 224.421 217.853 225.721 217.313 228.87C216.86 231.51 215.333 233.512 212.95 234.687C210.713 235.79 207.513 236.641 205.052 236.987C203.592 237.193 203.257 236.585 202.067 236.375C200.742 236.142 199.196 236.593 197.829 236.582C191.694 236.528 186.322 234.984 181.364 231.427C179.592 230.155 176.984 226.706 174.666 226.706C173.481 226.706 173.731 227.426 172.688 227.849C171.402 228.37 169.185 227.386 167.92 227.155C165.225 226.664 162.485 226.164 160.69 223.843C158.75 221.335 159.44 218.228 160.274 215.442C161.213 212.302 162.794 209.117 163.466 205.929C163.63 205.154 163.781 203.709 163.615 202.92C163.356 201.696 162.121 200.966 162.083 199.64C162.072 199.237 162.649 198.705 162.75 198.289C162.973 197.375 162.938 196.427 163.03 195.497C163.194 193.838 163.572 192.248 163.833 190.609C164.426 186.877 165.596 183.549 166.729 179.954C167.828 176.465 168.874 173.868 170.998 170.847C172.098 169.283 175.777 163.708 173.98 162.104C171.521 166.934 168.646 170.701 164.882 174.547C162.004 177.488 159.19 181.442 155.587 183.537C151.626 185.84 146.786 187.195 142.412 188.413C140.332 188.992 138.605 190.276 136.363 190.514C133.932 190.77 131.458 190.467 129.078 189.925C128.408 189.773 126.475 188.743 125.869 188.809C124.976 188.906 123.691 190.498 122.71 190.79C120.324 191.502 118.695 190.143 116.885 188.886C114.921 187.522 114.327 187.183 112.06 187.019C109.284 186.818 106.584 185.84 103.854 185.241C99.0531 184.187 94.9723 182.053 90.6087 179.818C85.6067 177.257 81.3281 173.726 77.5577 169.554C72.0153 163.42 64.2965 146.424 73.3505 140.473C68.0203 139.749 63.1388 137.421 62.489 131.389C62.1495 128.232 62.7886 124.735 63.5824 121.692C63.9446 120.303 64.3765 118.922 64.7903 117.547C65.102 117.083 65.267 116.575 65.2841 116.023C65.4753 115.307 65.1997 114.951 64.4568 114.954C63.0531 113.313 61.9975 111.864 61.7139 109.533C61.6245 108.794 61.5445 107.662 62.0701 107.034C62.3132 106.782 62.6068 106.613 62.9493 106.528C63.7722 106.575 64.0045 106.17 63.647 105.313C64.0464 104.098 63.4538 103.152 64.9594 102.645C65.4418 102.747 65.9222 102.86 66.4006 102.981C67.0113 103.26 67.4083 103.058 67.5931 102.378C69.0113 101.823 68.3571 101.002 70.2841 101.716C71.4502 102.149 72.5597 102.893 73.409 103.799C74.4743 103.115 72.0515 98.8887 71.9708 97.5402C71.779 94.3614 73.0933 91.7333 74.8031 89.1223C78.1265 84.0483 82.7653 79.6853 87.3399 75.7596C96.1019 68.2416 105.307 61.0846 115.201 55.0949C111.119 52.2603 106.351 51.4919 101.494 52.8093C97.0172 54.0239 93.3881 56.2298 89.2669 58.1592C85.449 59.946 81.3964 60.6801 80.1791 55.804C78.8152 50.3419 83.1667 48.3141 87.07 45.8648C86.0955 45.138 82.8869 45.6576 81.6733 45.7436C78.9702 45.9348 76.385 46.5451 73.7582 47.0848C72.4984 47.3432 71.3411 47.285 70.093 47.5384C68.2376 47.9151 66.3002 48.3369 64.423 48.8736C59.957 50.1508 55.5241 52.0892 51.665 54.7012C48.3295 56.9577 46.0154 60.1438 43.3281 63.0782C40.2635 66.4241 37.3267 69.7164 32.7833 70.941C30.6557 71.5149 28.1599 72.0355 26.6517 70.1352C25.2483 68.3682 25.1699 66.2386 25.2161 64.0782C25.3176 59.3059 27.6229 54.1491 30.3046 50.2495C33.2155 46.0165 37.1145 43.5923 40.7981 40.1852C35.4737 40.5658 30.328 43.3723 25.4314 45.3124C24.4009 45.7209 23.3607 46.1799 22.3246 46.5575C21.2198 46.9606 20.4879 46.7138 19.4293 46.8983C17.0138 47.3198 14.9388 48.3379 12.5891 46.7148C8.1436 43.6445 12.5975 37.3984 15.6583 35.4817C19.9215 32.8125 24.2586 30.5651 28.9554 28.6611C26.4127 25.9032 28.5841 21.9673 30.9279 20.0107C33.8931 17.535 37.6692 16.1163 41.2424 14.791C44.068 13.7428 46.8434 12.7363 49.7788 12.1055C52.8648 11.4427 56.4732 10.4298 59.6044 10.5269C62.5412 10.6181 65.1452 10.1007 68.1194 10.0179C70.5942 9.94911 73.0746 10.0086 75.549 9.94449C82.2066 9.77248 88.8886 10.2215 95.3952 10.7003C90.2401 -4.37465 124.197 0.280802 131.441 2.24988C138.025 4.03956 145.568 6.11554 151.098 10.3619C153.441 12.1604 155.666 14.2053 157.745 16.3036C160.811 19.3994 162.509 23.4538 164.131 27.4556C168.245 25.4401 172.179 23.2437 176.681 22.2443C180.965 21.2937 185.353 20.0051 189.661 19.287C192.937 18.7408 197.692 18.3703 200.449 20.6834C203.444 23.1958 205.004 27.1057 206.791 30.4539C215.375 22.3089 224.95 16.3668 237.188 16.7619C249.164 17.1487 257.04 27.4907 258.492 38.6974C260.091 51.0463 254.59 63.9497 247.134 73.5125C243.79 77.8012 240.33 81.9431 235.83 85.1427C233.599 86.7286 231.244 88.4661 228.797 89.7045C227.577 90.3219 226.243 90.8796 224.962 91.3547C224.384 91.5693 223.789 91.7842 223.187 91.9298C221.471 92.3463 221.804 91.7902 221.166 93.2931C220.648 94.5134 220.711 96.6128 220.489 97.952C220.236 99.4826 220.085 101.034 219.715 102.544C219.074 105.161 218.406 107.714 217.603 110.27C216.083 115.106 214.036 119.981 211.53 124.393C213.656 125.316 216.632 125.41 218.904 125.689C221.362 125.992 223.824 126.628 226.378 127.342C231.495 128.772 236.067 129.98 240.933 132.122C245.985 134.346 250.487 137.666 255.351 140.309C259.824 142.739 264.345 145.783 268.499 148.701C269.487 149.395 270.099 149.998 270.886 150.877C271.691 151.775 271.947 151.951 272.909 152.729C273.343 153.079 274.604 154.849 275.099 154.914C275.986 155.031 275.85 154.369 276.546 153.445C277.999 151.516 280.027 150.022 281.47 148.044C282.674 146.394 283.93 144.724 285.216 143.306C288.331 139.874 290.911 136.069 293.125 131.955C294.277 129.812 295.49 127.774 296.742 125.752C297.987 123.739 300.202 121.083 302.683 121.202C302.484 120.177 301.85 120.006 302.944 119.379C303.648 118.976 305.019 119.626 305.562 120.036C307.001 121.122 307.063 123.229 306.973 124.811C306.739 128.889 305.886 132.915 304.696 136.771C303.267 141.406 301.475 145.496 299.519 149.92C297.963 153.444 296.03 158.105 292.156 159.713C294.757 163.428 293.508 166.455 291.769 170.399C290.498 173.282 288.82 176.261 286.263 178.169C283.381 180.319 280.255 178.495 277.241 177.073C275.421 176.214 269.853 174.188 270.986 171.546C269.595 171.36 268.72 170.35 267.454 170.039C266.114 169.71 266.344 170.254 264.927 170.458C263.839 170.614 262.213 169.641 261.19 169.292C259.48 168.711 257.775 168.114 256.067 167.526C251.262 165.871 246.537 164.241 241.683 162.915C232.653 160.448 223.511 159.048 214.513 156.845C212.709 156.403 210.916 155.977 209.038 155.623C208.65 155.55 206.638 155.438 206.393 155.023C205.965 154.295 207.281 150.224 207.394 149.395C208.136 143.948 207.894 137.986 206.849 132.602C206.415 130.364 204.477 127.465 204.494 125.281C204.505 123.815 205.804 122.215 206.567 120.887C208.453 117.604 210.429 114.058 211.826 110.641C213.965 105.415 215.276 99.5164 216.221 93.9195C216.713 91.0015 217.285 87.8384 217.419 84.8866C217.522 82.6365 217.337 80.2766 217.664 77.9722C216.418 78.0904 214.656 78.7355 213.535 78.0449C212.118 77.1734 211.738 74.685 211.919 73.1988C207.069 74.0452 207.23 69.4462 207.53 65.8496C198.765 65.8496 209.99 52.825 211.393 50.0282C212.037 48.7423 212.018 50.1866 211.734 48.198C211.609 47.3238 211.011 46.3549 210.673 45.5511C209.937 43.7965 209.14 42.0687 208.289 40.3663C206.492 36.7707 204.456 33.2966 202.234 29.9467C200.234 31.3404 198.432 32.9903 196.761 34.7603C197.833 31.9581 201.107 28.4867 199.706 25.3049C198.408 22.3554 194.074 22.5599 191.514 23.0991C184.558 24.5657 177.887 26.7016 171.261 29.1747C173.313 30.3518 176.456 29.4425 178.496 28.5426C181.021 27.4278 183.737 26.2584 186.459 25.6678C188.832 25.1529 191.95 25.3287 191.264 28.5259C190.708 31.1165 188.174 33.6113 186.502 35.5484C182.818 39.8159 178.199 43.1196 173.662 46.4206C168.785 49.969 164.086 53.8244 159.147 57.27C150.219 63.4991 140.62 68.9126 131.396 74.7268C126.603 77.7479 121.171 80.1792 115.973 82.4182C110.255 84.8812 104.773 87.5184 98.8401 89.4638C95.5455 90.5445 92.28 91.4337 89.0426 92.6634C87.0134 93.4337 83.4798 94.9774 82.1389 92.6898C79.4161 88.0436 89.2699 81.9334 91.9703 79.0928C93.8331 80.9019 84.6468 87.6436 85.366 90.2777C85.9307 92.3477 88.1159 89.6747 89.1711 89.1106C90.8762 88.1986 92.8957 87.7403 94.6094 86.6998C98.1244 84.5659 102.292 82.1048 103.094 77.6934C102.536 77.1041 102.543 76.5601 103.115 76.0613C103.37 75.7583 103.572 75.4255 103.721 75.0626C103.971 74.3693 104.072 73.5012 104.206 72.766C104.601 70.5935 103.608 68.5594 104.537 66.4331C99.1193 70.5376 93.9124 75.1741 88.7701 79.6174C84.1577 83.603 79.3448 88.822 77.6498 94.7692C77.4328 95.5311 77.0719 96.3956 77.1115 97.1997C77.1885 98.7786 77.3461 98.4381 78.618 98.9456C79.8902 99.4535 81.7426 99.4096 83.1105 99.4635C83.8902 99.4937 87.3727 98.6681 86.6803 100.379C86.2813 101.366 83.8671 101.329 83.0027 101.42C80.8333 101.649 79.6568 101.414 80.6846 103.765C81.1453 104.819 82.0787 105.533 82.8109 106.349C84.8487 108.618 85.9555 112.099 87.5585 114.765C89.3847 117.803 91.3925 120.691 93.5254 123.52C94.4055 124.687 95.582 126.881 96.8023 127.714C97.9416 128.492 96.6011 128.428 98.4936 128.112C99.3185 127.974 100.066 127.438 100.855 127.246C105.573 126.096 110.423 124.801 115.302 123.382C121.543 121.567 128.093 120.019 134.047 117.406C139.381 115.064 144.676 112.277 150.066 109.905C151.64 109.213 153.213 108.754 154.436 107.48C155.913 105.943 157.135 103.93 158.497 102.277C160.814 99.4662 162.948 96.6071 165.442 93.9432C167.298 91.961 170.587 88.2763 173.205 87.4849C178.18 85.982 175.517 93.5599 174.874 95.4752C176.044 95.7407 176.658 94.2405 178.031 94.6721C179.674 95.189 179.844 97.3745 180.05 98.7441C180.105 99.109 179.611 99.791 179.761 100.116C179.812 100.227 180.884 100.861 181.091 101.155C181.842 102.223 181.695 103.521 181.41 104.673C179.938 110.637 174.704 114.992 170.855 119.391C172.577 119.065 173.854 118.084 175.479 117.598C177.005 117.141 178.539 117.165 180.076 117.034C181.686 116.897 183.233 116.295 184.88 116.264C186.608 116.232 188.263 116.724 189.977 116.919Z"/>
</mask>
<path fill-rule="evenodd" clip-rule="evenodd" d="M85.0462 53.5659C86.0667 53.4799 88.7055 51.4414 87.3208 50.4102C85.9241 49.37 84.9204 52.8562 85.0462 53.5659ZM31.8868 61.3842C32.1536 61.337 32.0371 59.8773 31.6173 59.6909C30.2915 59.1023 30.1797 61.3142 30.1472 61.9061C30.107 62.653 30.0133 64.7572 31.6253 64.1804C32.5403 63.8529 31.9725 61.944 31.8868 61.3842ZM110.145 68.2038C110.109 69.5068 112.741 72.0124 113.723 70.5095C114.548 69.2467 110.213 65.6099 110.145 68.2038ZM17.0741 38.8166C17.8368 40.7623 21.6088 38.1108 21.7491 36.6836C22.0367 33.7609 17.0346 36.8721 17.0741 38.8166ZM48.5437 47.205C50.3004 47.0607 52.6117 44.8273 54.3058 43.993C55.4521 43.4286 58.5713 42.7557 58.9104 41.4738C59.2057 40.3599 53.9134 42.7439 53.4614 42.9559C51.3854 43.9284 49.5136 45.0372 48.5437 47.205ZM180.416 31.8048C181.816 30.7221 183.518 30.0237 185.313 30.0696C186.209 30.0923 188.079 30.6531 188.149 29.103C188.263 26.5828 180.348 29.6564 179.111 30.1509C179.546 30.7027 179.981 31.2537 180.416 31.8048ZM93.0704 130.027C92.0433 128.321 90.1959 127.335 88.8066 125.88C89.3158 128.269 88.1678 130.395 87.379 132.576C89.2766 131.726 91.1732 130.877 93.0704 130.027ZM271.447 166.389C272.013 164.495 272.58 162.611 273.242 160.745C273.982 158.656 274.351 158.476 272.578 157.015C271.107 159.796 269.635 162.576 268.164 165.357C269.212 165.803 270.305 166.236 271.447 166.389ZM119.184 29.2487C117.236 27.0531 108.107 26.9152 109.237 31.7609C109.631 33.4529 111.875 31.6555 113.281 31.2611C114.677 30.8694 118.628 30.8175 119.184 29.2487ZM118.849 60.3336C118.613 59.7732 118.142 57.7508 117.442 57.5914C116.76 57.4361 114.071 59.5573 113.565 59.881C111.043 61.497 108.585 63.2356 106.127 64.9487C107.068 64.9487 107.923 64.6136 108.858 64.6065C109.969 64.5968 110.767 65.0535 111.85 64.793C114.179 64.2339 116.881 61.6537 118.849 60.3336ZM121.372 10.2345C121.591 9.23026 133.004 12.2449 134.376 12.797C135.123 13.0972 138.979 15.1016 138.151 12.0807C137.679 10.3602 133.223 9.0486 131.796 8.57706C128.165 7.37889 124.338 6.52662 120.473 6.72428C119.722 6.76238 114.038 7.0904 116.412 9.37519C117.23 10.162 120.161 9.91403 121.372 10.2345ZM123.871 148.215C125.997 149.261 128.168 150.061 130.391 150.879C131.378 151.243 132.917 152.194 134.006 151.955C134.898 151.759 135.184 150.4 135.653 149.491C137.366 146.164 139.412 143.48 141.949 140.737C140.771 139.878 134.791 143.667 133.311 144.227C131.83 144.787 130.433 145.351 128.983 146.02C127.618 146.65 124.924 147.214 123.871 148.215ZM161.522 119.854C164.621 118.451 167.559 115.965 170.101 113.738C173.019 111.181 175.635 108.502 177.772 105.194C176.486 105.259 173.648 109.395 173.616 104.892C173.599 102.596 176.747 100.334 177.724 98.2034C175.294 96.8315 173.066 105.029 170.278 103.042C167.592 101.127 171.83 94.5445 172.647 92.4675C171.071 91.4193 162.095 103.152 160.796 104.653C159.983 105.593 158.062 106.844 157.603 107.94C157.33 108.593 157.291 110.664 157.423 111.264C157.698 112.519 159.09 114.022 159.71 115.191C160.495 116.671 161.178 118.209 161.522 119.854ZM289.643 162.155C286.963 158.372 289.731 156.722 291.91 153.583C293.653 151.071 295.256 148.303 296.361 145.498C299.124 138.483 301.617 131.961 302.982 124.541C301.104 125.398 299.93 128.661 298.991 130.38C297.727 132.691 296.616 135.117 295.212 137.356C292.584 141.547 290.005 146.017 286.663 149.649C285.148 151.295 283.866 153.147 282.119 154.63C281.321 155.307 279.794 155.863 279.206 156.711C278.651 157.511 279.272 158.022 279.061 158.977C278.845 159.958 277.853 161.003 277.428 161.947C276.869 163.186 276.348 164.429 275.724 165.641C275.044 166.963 274.858 167.655 274.675 168.947C274.474 170.359 275.089 170.506 273.855 171.808C276.091 172.794 278.327 173.779 280.562 174.765C281.316 175.098 282.071 175.43 282.826 175.763C282.985 175.465 283.144 175.167 283.303 174.869C283.917 174.272 284.482 172.801 284.833 172.012C286.302 168.723 287.961 165.421 289.643 162.155ZM73.7602 146.275C67.4123 162.987 89.7189 177.059 103.45 180.171C105.352 180.602 107.208 181.166 109.101 181.629C111.166 182.133 112.999 182.033 115.059 182.244C116.698 182.412 117.48 183.679 119.024 184.028C121.606 184.611 121.448 182.671 121.633 180.592C122.416 171.779 126.914 163.276 131.675 155.922C129.5 155.144 127.346 154.295 125.199 153.443C123.362 152.714 120.549 150.665 118.574 150.556C117.114 150.476 114.888 151.723 113.47 152.271C111.108 153.182 108.738 153.959 106.276 154.581C101.971 155.668 97.1803 157.149 92.7252 157.262C91.4407 157.294 87.9174 157.892 86.9934 157.098C85.231 155.585 87.677 154.323 89.1524 153.783C97.9456 150.563 107.282 149.194 116.1 145.893C120.637 144.194 125.128 142.297 129.694 140.623C133.631 139.18 137.753 137.903 141.557 136.128C146.58 133.785 151.625 130.867 155.975 127.428C156.846 126.74 158.67 125.718 159.267 124.721C159.792 123.843 159.727 124.719 159.618 123.654C159.539 122.89 158.604 121.854 158.219 121.132C156.786 118.439 155.49 115.673 154.401 112.823C147.462 115.799 140.861 119.85 134.024 123.031C127.143 126.232 119.381 128.491 112.019 130.292C108.886 131.059 105.284 131.301 102.411 132.816C101.19 133.459 99.9828 134.204 98.6751 134.576C98.2887 135.317 97.9088 135.463 97.5341 135.012C97.2994 134.748 96.9961 134.637 96.6238 134.678C95.824 134.814 95.0082 135.191 94.2602 135.482C90.4741 136.949 86.8487 138.787 83.2545 140.663C81.5507 141.551 79.8031 142.426 78.1727 143.441C77.2989 143.985 76.5159 144.533 75.8008 145.28C74.9434 146.176 75.1476 146.912 73.7602 146.275ZM216.6 47.0476C218.204 47.0737 219.666 46.2046 221.339 46.2532C223.97 46.3292 226.052 48.3687 227.579 50.3356C230.6 54.2271 229.83 58.9219 228.312 63.2771C227.586 65.3585 226.589 67.3565 225.343 69.1784C224.241 70.7914 222.269 72.317 221.499 74.1128C220.23 77.0747 222.791 75.8152 224.359 75.1828C226.33 74.3867 228.179 73.3974 229.852 72.0646C237.31 66.1248 242.983 57.8686 244.884 48.3868C245.811 43.7607 245.74 38.3525 242.517 34.5768C239.571 31.1242 234.485 29.9963 230.138 30.6364C225.438 31.3287 221.179 33.3194 217.352 35.8815C216.241 36.626 215.223 37.4389 214.18 38.2715C212.81 39.3639 211.99 39.3924 212.333 41.1045C212.587 42.3773 213.28 43.6964 213.727 44.9177C214.563 47.2053 214.258 47.7972 216.6 47.0476ZM221.715 86.4859L221.39 87.0406C223.628 87.1471 225.712 85.1732 227.618 84.2096C230.095 82.9572 232.294 81.2488 234.465 79.5236C238.292 76.4808 242.169 73.0515 245.018 69.0569C251.405 60.1023 257.206 48.7493 255.463 37.3961C253.585 25.1599 242.883 20.4497 231.479 22.0696C226.339 22.7995 221.751 25.094 217.152 27.4234C214.833 28.5975 212.877 30.1211 210.753 31.5955C209.651 32.3612 208.645 32.4606 208.573 33.7991C208.519 34.8078 210.263 37.0891 210.734 38.003C216.509 32.1121 222.732 27.2386 231.453 26.9373C241.828 26.5791 247.963 36.4165 247.918 45.8367C247.873 55.0751 243.889 63.9617 237.537 70.6012C234.65 73.6187 231.898 76.0398 228.353 78.2421C226.586 79.3398 225.283 80.3254 223.307 81.0543C221.91 81.5702 222.055 81.2983 221.699 82.592C221.396 83.6897 221.705 85.3459 221.715 86.4859ZM165.34 212.001C165.204 213.666 164.866 215.305 164.49 216.929C164.354 217.512 163.593 219.353 163.726 220.008C163.947 221.092 163.653 220.395 164.603 220.96C165.593 221.551 166.746 221.515 167.83 221.694C168.5 221.805 170.952 222.959 171.364 222.777C172.085 222.458 172.063 221.335 172.854 220.889C173.932 220.282 175.52 220.802 176.537 221.277C179.256 222.545 181.124 225.17 183.754 226.607C188.426 229.159 193.969 230.571 199.181 231.154C202.004 231.47 204.894 232.024 207.682 231.362C209.879 230.841 212.734 230.889 213.929 228.532C203.315 225.613 187.116 222.041 182.92 209.862C180.639 211.93 176.827 210.816 174.07 210.53C171.037 210.216 168.327 210.289 165.553 208.907C165.351 209.994 165.289 210.896 165.34 212.001ZM71.3712 136.567C76.3672 136.869 81.1038 134.505 84.1781 130.516C84.9351 129.533 85.7111 128.53 86.1654 127.366C86.2642 127.071 86.3623 126.776 86.4607 126.481C86.9378 125.667 86.7289 125.282 85.8347 125.328C85.3308 124.637 84.0533 124.405 84.4168 123.152C84.6904 122.208 85.7004 122.192 86.5782 121.895C86.141 121.16 85.8795 120.792 85.2538 120.139C83.6277 121.601 80.6766 124.472 79.534 121.112C78.9849 119.499 79.9511 117.957 79.7117 116.4C79.6133 115.757 78.7974 114.112 78.3244 113.728C75.8058 111.677 72.1784 112.526 69.5061 113.733C67.6644 114.565 67.268 114.955 66.9677 116.862C66.6628 118.801 66.3795 120.74 66.0411 122.673C67.1462 122.097 67.3474 120.853 68.0682 119.957C68.338 120.449 68.6082 120.941 68.879 121.432C69.2594 121.219 69.6146 121.23 69.944 121.466C70.4773 122.286 70.1419 123.502 69.9778 124.362C71.7562 124.196 72.5078 126.18 70.715 126.983C68.8579 127.816 68.0203 125.546 67.9574 124.077C67.2644 124.904 66.5526 124.461 66.0695 124.887C65.5871 125.312 65.3969 126.198 65.2252 127.169C64.943 128.763 64.2208 131.064 64.8891 132.663C65.881 135.039 69.0438 136.276 71.3712 136.567ZM216.142 60.2533C214.489 62.5523 211.67 65.5617 211.081 68.3391C212.902 67.2708 216.751 62.1294 217.743 66.2249C218.313 68.5758 215.393 71.3769 214.675 73.6531C217.547 72.7084 219.592 69.7495 221.384 67.4659C223.668 64.5543 226.001 60.7163 226.584 57.0139C227.055 54.0179 224.977 51.2254 221.889 50.9318C220.312 50.7818 218.664 51.0323 217.14 51.3982C216.445 51.5646 215.409 51.7715 214.789 52.1438C214.01 52.6115 213.903 53.7062 213.17 52.7956C212.195 54.6326 211.22 56.4695 210.246 58.3058C211.216 57.954 213.195 56.4602 214.255 56.6145C215.803 56.8405 216.121 59.0889 216.142 60.2533ZM61.3597 15.2812C57.0259 15.4089 52.4959 16.3318 48.3931 17.7037C47.3743 18.0447 43.076 19.2573 43.9813 21.0153C44.5795 22.1772 47.8052 20.5353 48.7804 20.2615C52.9599 19.0878 57.2633 18.3138 61.5442 17.6074C62.5807 17.4364 66.097 17.4533 66.2784 16.0946C66.5007 14.4367 62.5837 15.2793 61.3597 15.2812ZM179.31 204.376C176.96 204.663 174.705 204.556 172.354 204.268C170.375 204.026 168.36 203.216 166.391 203.216C166.391 205.323 166.248 205.337 168.471 205.788C170.024 206.103 171.598 206.279 173.166 206.499C175.928 206.885 178.993 207.969 181.789 207.412C181.721 207.046 181.507 204.576 181.217 204.332C181.054 204.195 179.547 204.378 179.31 204.376ZM141.344 48.436C142.001 48.8545 143.51 50.5234 144.293 50.5528C144.014 48.6208 141.858 45.2568 139.382 46.4507C138.776 46.7436 137.502 48.2013 138.078 48.8444C138.386 49.1883 140.539 48.4383 141.344 48.436ZM118.441 65.6239C118.465 65.2872 118.489 64.9504 118.514 64.6139C117.606 65.1479 116.481 65.4006 115.836 66.261C116.611 66.6045 117.385 66.9484 118.161 67.2922C118.254 66.7361 118.348 66.18 118.441 65.6239ZM189.977 116.919C194.269 118.422 198.203 120.43 201.362 123.837C204.093 126.783 205.376 131.974 206.043 135.836C207.692 145.393 204.509 154.251 202.411 163.394C201.346 168.032 199.757 172.495 198.269 177.013C196.97 180.958 195.855 185.089 194.062 188.841C192.541 192.021 190.599 195.157 189.261 198.457C188.541 200.233 187.374 206.327 184.642 204.413C183.896 206.362 183.715 206.196 184.512 207.551C185.089 208.531 187.046 209.892 187.969 210.69C190.43 212.818 193.547 214.572 196.434 216.061C201.721 218.79 207.389 220.832 212.835 223.32C215.242 224.421 217.853 225.721 217.313 228.87C216.86 231.51 215.333 233.512 212.95 234.687C210.713 235.79 207.513 236.641 205.052 236.987C203.592 237.193 203.257 236.585 202.067 236.375C200.742 236.142 199.196 236.593 197.829 236.582C191.694 236.528 186.322 234.984 181.364 231.427C179.592 230.155 176.984 226.706 174.666 226.706C173.481 226.706 173.731 227.426 172.688 227.849C171.402 228.37 169.185 227.386 167.92 227.155C165.225 226.664 162.485 226.164 160.69 223.843C158.75 221.335 159.44 218.228 160.274 215.442C161.213 212.302 162.794 209.117 163.466 205.929C163.63 205.154 163.781 203.709 163.615 202.92C163.356 201.696 162.121 200.966 162.083 199.64C162.072 199.237 162.649 198.705 162.75 198.289C162.973 197.375 162.938 196.427 163.03 195.497C163.194 193.838 163.572 192.248 163.833 190.609C164.426 186.877 165.596 183.549 166.729 179.954C167.828 176.465 168.874 173.868 170.998 170.847C172.098 169.283 175.777 163.708 173.98 162.104C171.521 166.934 168.646 170.701 164.882 174.547C162.004 177.488 159.19 181.442 155.587 183.537C151.626 185.84 146.786 187.195 142.412 188.413C140.332 188.992 138.605 190.276 136.363 190.514C133.932 190.77 131.458 190.467 129.078 189.925C128.408 189.773 126.475 188.743 125.869 188.809C124.976 188.906 123.691 190.498 122.71 190.79C120.324 191.502 118.695 190.143 116.885 188.886C114.921 187.522 114.327 187.183 112.06 187.019C109.284 186.818 106.584 185.84 103.854 185.241C99.0531 184.187 94.9723 182.053 90.6087 179.818C85.6067 177.257 81.3281 173.726 77.5577 169.554C72.0153 163.42 64.2965 146.424 73.3505 140.473C68.0203 139.749 63.1388 137.421 62.489 131.389C62.1495 128.232 62.7886 124.735 63.5824 121.692C63.9446 120.303 64.3765 118.922 64.7903 117.547C65.102 117.083 65.267 116.575 65.2841 116.023C65.4753 115.307 65.1997 114.951 64.4568 114.954C63.0531 113.313 61.9975 111.864 61.7139 109.533C61.6245 108.794 61.5445 107.662 62.0701 107.034C62.3132 106.782 62.6068 106.613 62.9493 106.528C63.7722 106.575 64.0045 106.17 63.647 105.313C64.0464 104.098 63.4538 103.152 64.9594 102.645C65.4418 102.747 65.9222 102.86 66.4006 102.981C67.0113 103.26 67.4083 103.058 67.5931 102.378C69.0113 101.823 68.3571 101.002 70.2841 101.716C71.4502 102.149 72.5597 102.893 73.409 103.799C74.4743 103.115 72.0515 98.8887 71.9708 97.5402C71.779 94.3614 73.0933 91.7333 74.8031 89.1223C78.1265 84.0483 82.7653 79.6853 87.3399 75.7596C96.1019 68.2416 105.307 61.0846 115.201 55.0949C111.119 52.2603 106.351 51.4919 101.494 52.8093C97.0172 54.0239 93.3881 56.2298 89.2669 58.1592C85.449 59.946 81.3964 60.6801 80.1791 55.804C78.8152 50.3419 83.1667 48.3141 87.07 45.8648C86.0955 45.138 82.8869 45.6576 81.6733 45.7436C78.9702 45.9348 76.385 46.5451 73.7582 47.0848C72.4984 47.3432 71.3411 47.285 70.093 47.5384C68.2376 47.9151 66.3002 48.3369 64.423 48.8736C59.957 50.1508 55.5241 52.0892 51.665 54.7012C48.3295 56.9577 46.0154 60.1438 43.3281 63.0782C40.2635 66.4241 37.3267 69.7164 32.7833 70.941C30.6557 71.5149 28.1599 72.0355 26.6517 70.1352C25.2483 68.3682 25.1699 66.2386 25.2161 64.0782C25.3176 59.3059 27.6229 54.1491 30.3046 50.2495C33.2155 46.0165 37.1145 43.5923 40.7981 40.1852C35.4737 40.5658 30.328 43.3723 25.4314 45.3124C24.4009 45.7209 23.3607 46.1799 22.3246 46.5575C21.2198 46.9606 20.4879 46.7138 19.4293 46.8983C17.0138 47.3198 14.9388 48.3379 12.5891 46.7148C8.1436 43.6445 12.5975 37.3984 15.6583 35.4817C19.9215 32.8125 24.2586 30.5651 28.9554 28.6611C26.4127 25.9032 28.5841 21.9673 30.9279 20.0107C33.8931 17.535 37.6692 16.1163 41.2424 14.791C44.068 13.7428 46.8434 12.7363 49.7788 12.1055C52.8648 11.4427 56.4732 10.4298 59.6044 10.5269C62.5412 10.6181 65.1452 10.1007 68.1194 10.0179C70.5942 9.94911 73.0746 10.0086 75.549 9.94449C82.2066 9.77248 88.8886 10.2215 95.3952 10.7003C90.2401 -4.37465 124.197 0.280802 131.441 2.24988C138.025 4.03956 145.568 6.11554 151.098 10.3619C153.441 12.1604 155.666 14.2053 157.745 16.3036C160.811 19.3994 162.509 23.4538 164.131 27.4556C168.245 25.4401 172.179 23.2437 176.681 22.2443C180.965 21.2937 185.353 20.0051 189.661 19.287C192.937 18.7408 197.692 18.3703 200.449 20.6834C203.444 23.1958 205.004 27.1057 206.791 30.4539C215.375 22.3089 224.95 16.3668 237.188 16.7619C249.164 17.1487 257.04 27.4907 258.492 38.6974C260.091 51.0463 254.59 63.9497 247.134 73.5125C243.79 77.8012 240.33 81.9431 235.83 85.1427C233.599 86.7286 231.244 88.4661 228.797 89.7045C227.577 90.3219 226.243 90.8796 224.962 91.3547C224.384 91.5693 223.789 91.7842 223.187 91.9298C221.471 92.3463 221.804 91.7902 221.166 93.2931C220.648 94.5134 220.711 96.6128 220.489 97.952C220.236 99.4826 220.085 101.034 219.715 102.544C219.074 105.161 218.406 107.714 217.603 110.27C216.083 115.106 214.036 119.981 211.53 124.393C213.656 125.316 216.632 125.41 218.904 125.689C221.362 125.992 223.824 126.628 226.378 127.342C231.495 128.772 236.067 129.98 240.933 132.122C245.985 134.346 250.487 137.666 255.351 140.309C259.824 142.739 264.345 145.783 268.499 148.701C269.487 149.395 270.099 149.998 270.886 150.877C271.691 151.775 271.947 151.951 272.909 152.729C273.343 153.079 274.604 154.849 275.099 154.914C275.986 155.031 275.85 154.369 276.546 153.445C277.999 151.516 280.027 150.022 281.47 148.044C282.674 146.394 283.93 144.724 285.216 143.306C288.331 139.874 290.911 136.069 293.125 131.955C294.277 129.812 295.49 127.774 296.742 125.752C297.987 123.739 300.202 121.083 302.683 121.202C302.484 120.177 301.85 120.006 302.944 119.379C303.648 118.976 305.019 119.626 305.562 120.036C307.001 121.122 307.063 123.229 306.973 124.811C306.739 128.889 305.886 132.915 304.696 136.771C303.267 141.406 301.475 145.496 299.519 149.92C297.963 153.444 296.03 158.105 292.156 159.713C294.757 163.428 293.508 166.455 291.769 170.399C290.498 173.282 288.82 176.261 286.263 178.169C283.381 180.319 280.255 178.495 277.241 177.073C275.421 176.214 269.853 174.188 270.986 171.546C269.595 171.36 268.72 170.35 267.454 170.039C266.114 169.71 266.344 170.254 264.927 170.458C263.839 170.614 262.213 169.641 261.19 169.292C259.48 168.711 257.775 168.114 256.067 167.526C251.262 165.871 246.537 164.241 241.683 162.915C232.653 160.448 223.511 159.048 214.513 156.845C212.709 156.403 210.916 155.977 209.038 155.623C208.65 155.55 206.638 155.438 206.393 155.023C205.965 154.295 207.281 150.224 207.394 149.395C208.136 143.948 207.894 137.986 206.849 132.602C206.415 130.364 204.477 127.465 204.494 125.281C204.505 123.815 205.804 122.215 206.567 120.887C208.453 117.604 210.429 114.058 211.826 110.641C213.965 105.415 215.276 99.5164 216.221 93.9195C216.713 91.0015 217.285 87.8384 217.419 84.8866C217.522 82.6365 217.337 80.2766 217.664 77.9722C216.418 78.0904 214.656 78.7355 213.535 78.0449C212.118 77.1734 211.738 74.685 211.919 73.1988C207.069 74.0452 207.23 69.4462 207.53 65.8496C198.765 65.8496 209.99 52.825 211.393 50.0282C212.037 48.7423 212.018 50.1866 211.734 48.198C211.609 47.3238 211.011 46.3549 210.673 45.5511C209.937 43.7965 209.14 42.0687 208.289 40.3663C206.492 36.7707 204.456 33.2966 202.234 29.9467C200.234 31.3404 198.432 32.9903 196.761 34.7603C197.833 31.9581 201.107 28.4867 199.706 25.3049C198.408 22.3554 194.074 22.5599 191.514 23.0991C184.558 24.5657 177.887 26.7016 171.261 29.1747C173.313 30.3518 176.456 29.4425 178.496 28.5426C181.021 27.4278 183.737 26.2584 186.459 25.6678C188.832 25.1529 191.95 25.3287 191.264 28.5259C190.708 31.1165 188.174 33.6113 186.502 35.5484C182.818 39.8159 178.199 43.1196 173.662 46.4206C168.785 49.969 164.086 53.8244 159.147 57.27C150.219 63.4991 140.62 68.9126 131.396 74.7268C126.603 77.7479 121.171 80.1792 115.973 82.4182C110.255 84.8812 104.773 87.5184 98.8401 89.4638C95.5455 90.5445 92.28 91.4337 89.0426 92.6634C87.0134 93.4337 83.4798 94.9774 82.1389 92.6898C79.4161 88.0436 89.2699 81.9334 91.9703 79.0928C93.8331 80.9019 84.6468 87.6436 85.366 90.2777C85.9307 92.3477 88.1159 89.6747 89.1711 89.1106C90.8762 88.1986 92.8957 87.7403 94.6094 86.6998C98.1244 84.5659 102.292 82.1048 103.094 77.6934C102.536 77.1041 102.543 76.5601 103.115 76.0613C103.37 75.7583 103.572 75.4255 103.721 75.0626C103.971 74.3693 104.072 73.5012 104.206 72.766C104.601 70.5935 103.608 68.5594 104.537 66.4331C99.1193 70.5376 93.9124 75.1741 88.7701 79.6174C84.1577 83.603 79.3448 88.822 77.6498 94.7692C77.4328 95.5311 77.0719 96.3956 77.1115 97.1997C77.1885 98.7786 77.3461 98.4381 78.618 98.9456C79.8902 99.4535 81.7426 99.4096 83.1105 99.4635C83.8902 99.4937 87.3727 98.6681 86.6803 100.379C86.2813 101.366 83.8671 101.329 83.0027 101.42C80.8333 101.649 79.6568 101.414 80.6846 103.765C81.1453 104.819 82.0787 105.533 82.8109 106.349C84.8487 108.618 85.9555 112.099 87.5585 114.765C89.3847 117.803 91.3925 120.691 93.5254 123.52C94.4055 124.687 95.582 126.881 96.8023 127.714C97.9416 128.492 96.6011 128.428 98.4936 128.112C99.3185 127.974 100.066 127.438 100.855 127.246C105.573 126.096 110.423 124.801 115.302 123.382C121.543 121.567 128.093 120.019 134.047 117.406C139.381 115.064 144.676 112.277 150.066 109.905C151.64 109.213 153.213 108.754 154.436 107.48C155.913 105.943 157.135 103.93 158.497 102.277C160.814 99.4662 162.948 96.6071 165.442 93.9432C167.298 91.961 170.587 88.2763 173.205 87.4849C178.18 85.982 175.517 93.5599 174.874 95.4752C176.044 95.7407 176.658 94.2405 178.031 94.6721C179.674 95.189 179.844 97.3745 180.05 98.7441C180.105 99.109 179.611 99.791 179.761 100.116C179.812 100.227 180.884 100.861 181.091 101.155C181.842 102.223 181.695 103.521 181.41 104.673C179.938 110.637 174.704 114.992 170.855 119.391C172.577 119.065 173.854 118.084 175.479 117.598C177.005 117.141 178.539 117.165 180.076 117.034C181.686 116.897 183.233 116.295 184.88 116.264C186.608 116.232 188.263 116.724 189.977 116.919Z" fill="#3A3A3A" stroke="black" stroke-width="2" mask="url(#path-2-inside-1_1_2041)"/>
<path fill-rule="evenodd" clip-rule="evenodd" d="M7.94677 63.2748C6.99765 63.8951 6.73012 64.5038 6.69735 65.935C6.68422 66.5219 6.7247 68.7117 7.54506 68.629C8.3149 68.5517 7.94677 64.0277 7.94677 63.2748ZM3.04388 66.8413C3.48614 62.2544 5.16429 57.5904 9.11206 54.7324C10.0884 54.0256 11.1928 54.0507 12.2628 53.6048C12.9059 53.337 13.9218 52.0916 14.6519 52.2389C17.3394 52.7826 14.2345 56.3534 13.7799 57.2928C12.3708 60.2031 12.466 62.7602 12.5081 65.8999C12.5401 68.2859 13.0359 72.3083 11.833 74.4681C10.5507 76.7677 7.76953 75.2742 6.21709 73.9133C4.25782 72.1948 2.77806 69.4586 3.04388 66.8413Z" fill="#3A3A3A"/>
<path fill-rule="evenodd" clip-rule="evenodd" d="M50.2213 80.3964C50.2213 82.9559 52.2987 81.223 52.2247 79.4025C52.1159 76.7221 50.1242 78.3726 50.2213 80.3964ZM61.2656 66.2463C58.9921 68.2912 57.2381 69.4385 56.7999 72.5828C56.4681 74.9645 56.7979 77.3234 56.8119 79.7225C56.8357 83.744 53.5883 87.9717 50.0938 83.362C47.5447 79.9997 48.459 74.7128 50.5377 71.3334C51.6284 69.5607 53.1855 67.8068 54.9843 66.702C56.3372 65.8704 60.1431 64.2343 61.2656 66.2463Z" fill="#3A3A3A"/>
<path fill-rule="evenodd" clip-rule="evenodd" d="M29.5118 128.223C29.2483 128.847 28.6293 131.394 29.8921 130.818C31.0066 130.309 30.2845 128.621 29.5118 128.223ZM22.8405 120.362C22.6456 119.404 22.725 113.401 24.3785 113.852C25.6771 114.205 25.8917 117.277 26.4207 118.347C28.3909 122.329 32.9129 124.809 34.4723 128.919C36.2129 133.509 30.9504 133.651 28.1579 131.793C24.8516 129.592 22.9386 124.203 22.8405 120.362Z" fill="#3A3A3A"/>
<path fill-rule="evenodd" clip-rule="evenodd" d="M18.7873 95.749C19.5048 94.7801 19.5774 94.2626 19.1683 93.4055C18.6454 93.9743 18.7381 94.7872 18.7873 95.749ZM19.3066 100.083C15.5657 100.502 15.3784 93.608 16.019 91.2411C16.5292 89.3559 17.6259 87.3305 18.7552 85.7944C18.9832 85.4844 21.1459 82.6993 21.5697 82.6927C23.1968 82.6669 22.7499 84.5052 22.5741 85.1895C22.0214 87.3455 21.8024 89.1473 21.9511 91.5377C22.1108 94.0955 23.322 100.168 19.3066 100.083Z" fill="#3A3A3A"/>
<path fill-rule="evenodd" clip-rule="evenodd" d="M189.155 40.3812C183.806 44.867 178.728 49.7235 172.911 53.6472C170.065 55.5675 167.09 57.2662 164.25 59.2177C162.804 60.2117 161.328 61.1015 159.724 61.832C158.306 62.4775 157.379 62.5615 158.555 61.0296C159.342 60.0061 161.104 59.293 162.174 58.5655C163.822 57.445 165.379 56.2023 167.112 55.2083C170.168 53.455 173.206 52.0395 176.023 49.8895C178.523 47.9816 181.103 46.1188 183.489 44.091C184.512 43.2216 187.906 39.2296 189.155 40.3812Z" fill="#3A3A3A"/>
<path fill-rule="evenodd" clip-rule="evenodd" d="M189.263 56.5791C191.668 58.6367 185.65 64.2738 184.277 65.5514C182.83 66.8989 181.236 68.1008 179.662 69.2943C179.108 69.7148 176.085 72.528 175.317 72.301C173.803 71.8528 175.791 70.0275 176.308 69.5518C177.979 68.0104 179.687 66.5146 181.321 64.9317C182.795 63.5055 184.392 62.1848 185.817 60.7124C186.972 59.5195 187.942 57.4984 189.263 56.5791Z" fill="#3A3A3A"/>
<path fill-rule="evenodd" clip-rule="evenodd" d="M11.0478 139.524C10.4198 138.069 9.29495 139.685 9.8652 140.412C10.4045 141.1 10.9675 139.804 11.0478 139.524ZM7.36517 136.651C7.70187 134.511 8.47998 133.321 10.4875 135.148C11.867 136.403 14.6415 139.972 14.3782 141.918C14.0326 144.47 11.2217 143.746 9.76456 142.412C8.27097 141.044 7.61161 138.548 7.36517 136.651Z" fill="#3A3A3A"/>
<path fill-rule="evenodd" clip-rule="evenodd" d="M11.7644 178.768C9.30514 178.581 7.20703 176.692 6.16266 174.48C5.28394 172.619 4.45223 169.62 7.53934 170.598C9.55134 171.235 17.3075 179.068 11.7644 178.768Z" fill="#3A3A3A"/>
<path fill-rule="evenodd" clip-rule="evenodd" d="M41.5685 166.637C39.6679 167.07 37.7881 165.818 36.6193 164.407C35.8922 163.527 34.1998 160.446 35.0525 159.177C36.241 157.408 38.0355 160.964 38.6545 161.668C39.6254 162.771 42.8005 164.879 41.5685 166.637Z" fill="#3A3A3A"/>
<path fill-rule="evenodd" clip-rule="evenodd" d="M43.2803 118.515C41.7905 117.823 40.4075 116.991 39.8082 115.34C39.4272 114.288 39.1071 111.135 40.7991 111.149C42.7563 111.167 47.2378 118.199 43.2803 118.515Z" fill="#3A3A3A"/>
<path fill-rule="evenodd" clip-rule="evenodd" d="M32.8356 85.7064C34.8302 85.6703 35.3026 86.7704 35.5798 88.3509C35.7683 89.4236 36.6819 93.0651 35.7332 93.811C34.3773 94.8769 32.2202 92.4346 31.7844 91.4758C30.8858 89.5019 32.1282 87.5605 32.8356 85.7064Z" fill="#3A3A3A"/>
<path fill-rule="evenodd" clip-rule="evenodd" d="M67.1107 194.892C68.0819 195.334 70.2915 196.314 69.4472 197.835C68.5644 199.425 66.0297 197.879 65.0829 197.184C64.6865 196.893 62.1683 194.989 62.2737 194.351C62.4957 192.994 65.9671 194.765 67.1107 194.892Z" fill="#3A3A3A"/>
<path fill-rule="evenodd" clip-rule="evenodd" d="M3.12242 95.5843C3.7861 97.2462 4.53318 102.956 1.03827 99.8726C-0.0282615 98.9315 -0.189227 97.7564 0.178235 96.4645C0.709575 94.5924 1.48283 94.9636 3.12242 95.5843Z" fill="#3A3A3A"/>
<path fill-rule="evenodd" clip-rule="evenodd" d="M188.33 74.3226C187.556 72.7414 189.467 71.7216 190.488 70.7025C191.155 70.037 193.958 66.427 194.877 66.6309C196.767 67.0504 189.26 73.6175 188.33 74.3226Z" fill="#3A3A3A"/>
<path fill-rule="evenodd" clip-rule="evenodd" d="M32.8104 188.848C34.634 188.556 35.0595 190.581 36.2343 191.464C36.7381 191.843 38.4676 192.176 38.1198 192.98C37.2058 195.091 32.721 190.268 32.8104 188.848Z" fill="#3A3A3A"/>
<path fill-rule="evenodd" clip-rule="evenodd" d="M48.2093 141.01C49.4627 140.485 53.0804 143.303 52.0416 144.521C50.4889 146.343 48.2977 142.006 48.2093 141.01Z" fill="#3A3A3A"/>
<path fill-rule="evenodd" clip-rule="evenodd" d="M74.6298 181.785C73.7161 181.875 69.8604 180.664 71.2889 179.041C72.2919 177.901 74.9575 180.753 74.6298 181.785Z" fill="#3A3A3A"/>
<path fill-rule="evenodd" clip-rule="evenodd" d="M28.4569 173.998C27.5499 174.361 24.2784 173.615 25.3069 172.194C26.2868 170.841 28.4582 172.875 28.4569 173.998Z" fill="#3A3A3A"/>
<path fill-rule="evenodd" clip-rule="evenodd" d="M55.2399 180.128C56.3005 180.018 57.0665 180.657 57.2486 181.74C55.9222 181.929 55.5131 181.614 55.2399 180.128Z" fill="#3A3A3A"/>
<path fill-rule="evenodd" clip-rule="evenodd" d="M193.172 22.9297C193.62 22.9317 194.067 22.934 194.511 22.936C194.063 22.9337 193.618 22.9317 193.172 22.9297Z" fill="#3A3A3A"/>
<path fill-rule="evenodd" clip-rule="evenodd" d="M186.142 116.17C185.472 116.17 184.802 116.172 184.133 116.172C184.803 116.171 185.472 116.17 186.142 116.17Z" fill="#3A3A3A"/>
<path fill-rule="evenodd" clip-rule="evenodd" d="M94.7913 7.03052C94.7605 7.70086 94.7297 8.37121 94.6982 9.03924C94.7283 8.36833 94.7598 7.69912 94.7913 7.03052Z" fill="#3A3A3A"/>
<path fill-rule="evenodd" clip-rule="evenodd" d="M302.248 120.858C302.461 121.603 302.149 121.726 301.308 121.228C301.621 121.105 301.934 120.981 302.248 120.858Z" fill="#3A3A3A"/>
<path fill-rule="evenodd" clip-rule="evenodd" d="M283.23 179.275C283.566 179.277 283.902 179.28 284.234 179.282C283.897 179.28 283.564 179.277 283.23 179.275Z" fill="#3A3A3A"/>
<path fill-rule="evenodd" clip-rule="evenodd" d="M219.62 125.386C219.059 125.814 218.5 125.874 217.946 125.363C218.504 125.371 219.062 125.379 219.62 125.386Z" fill="#3A3A3A"/>
<path fill-rule="evenodd" clip-rule="evenodd" d="M207.087 68.2966C207.073 68.8554 207.059 69.4138 207.044 69.9706C207.058 69.4111 207.073 68.8537 207.087 68.2966Z" fill="#3A3A3A"/>
<path fill-rule="evenodd" clip-rule="evenodd" d="M236.025 16.6388C235.467 16.6385 234.908 16.6378 234.351 16.6372C234.909 16.4283 235.467 16.4969 236.025 16.6388Z" fill="#3A3A3A"/>
<path fill-rule="evenodd" clip-rule="evenodd" d="M72.3139 9.8269C71.7562 9.85971 71.1978 9.89252 70.64 9.92533C71.1978 9.89252 71.7562 9.85971 72.3139 9.8269Z" fill="#3A3A3A"/>
<path fill-rule="evenodd" clip-rule="evenodd" d="M86.0403 9.93316C85.594 9.89533 85.147 9.85717 84.7011 9.81934C85.147 9.85717 85.5933 9.89533 86.0403 9.93316Z" fill="#3A3A3A"/>
<path fill-rule="evenodd" clip-rule="evenodd" d="M93.4056 10.4636C92.9593 10.63 92.513 10.7284 92.0664 10.466C92.513 10.4653 92.9593 10.4643 93.4056 10.4636Z" fill="#3A3A3A"/>
<path fill-rule="evenodd" clip-rule="evenodd" d="M53.5659 11.3804C53.0075 11.4939 52.4497 11.6074 51.892 11.7198C52.4504 11.6074 53.0081 11.4939 53.5659 11.3804Z" fill="#3A3A3A"/>
<path fill-rule="evenodd" clip-rule="evenodd" d="M207.423 147.641C207.408 147.977 207.392 148.312 207.378 148.645C207.393 148.31 207.408 147.975 207.423 147.641Z" fill="#3A3A3A"/>
<path fill-rule="evenodd" clip-rule="evenodd" d="M22.9235 120.523C22.9302 120.747 22.9366 120.97 22.9426 121.193C22.9352 120.968 22.9299 120.746 22.9235 120.523Z" fill="#3A3A3A"/>
<path fill-rule="evenodd" clip-rule="evenodd" d="M304.321 119.322L302.647 119.331C303.204 118.915 303.762 118.968 304.321 119.322Z" fill="#3A3A3A"/>
<path fill-rule="evenodd" clip-rule="evenodd" d="M189.824 116.951C189.377 116.878 188.931 116.804 188.485 116.73C188.931 116.804 189.378 116.878 189.824 116.951Z" fill="#3A3A3A"/>
<path fill-rule="evenodd" clip-rule="evenodd" d="M67.2922 194.842C66.7341 194.733 66.1764 194.624 65.6183 194.516L67.2922 194.842Z" fill="#3A3A3A"/>
<path fill-rule="evenodd" clip-rule="evenodd" d="M179.963 98.7622C179.953 98.4271 179.943 98.0919 179.933 97.7578C179.943 98.0929 179.953 98.4277 179.963 98.7622Z" fill="#3A3A3A"/>
<path fill-rule="evenodd" clip-rule="evenodd" d="M73.9879 9.93799C73.6532 9.89681 73.318 9.85563 72.9836 9.81445C73.318 9.85563 73.6532 9.89681 73.9879 9.93799Z" fill="#3A3A3A"/>
<path fill-rule="evenodd" clip-rule="evenodd" d="M128.893 1.65881C128.558 1.55737 128.223 1.45593 127.889 1.35449C128.223 1.45593 128.558 1.55737 128.893 1.65881Z" fill="#3A3A3A"/>
<path fill-rule="evenodd" clip-rule="evenodd" d="M168.733 227.467C168.957 227.481 169.181 227.495 169.402 227.508C169.177 227.494 168.955 227.481 168.733 227.467Z" fill="#3A3A3A"/>
<path fill-rule="evenodd" clip-rule="evenodd" d="M15.0654 47.6936C15.4016 47.7023 15.7377 47.7113 16.0698 47.7204C15.732 47.7113 15.3987 47.7023 15.0654 47.6936Z" fill="#3A3A3A"/>
<path fill-rule="evenodd" clip-rule="evenodd" d="M239.708 16.9657C239.149 16.9266 238.592 16.8874 238.034 16.8479C238.592 16.8874 239.149 16.9266 239.708 16.9657Z" fill="#3A3A3A"/>
<path fill-rule="evenodd" clip-rule="evenodd" d="M63.2747 15.3982C62.4917 15.3995 61.7096 15.4009 60.9312 15.4022C61.716 15.4009 62.4953 15.3995 63.2747 15.3982Z" fill="#3A3A3A"/>
<path fill-rule="evenodd" clip-rule="evenodd" d="M221.446 84.3662C221.456 84.925 221.467 85.4837 221.478 86.0401C221.468 85.4811 221.458 84.9233 221.446 84.3662Z" fill="#3A3A3A"/>
<path fill-rule="evenodd" clip-rule="evenodd" d="M180.45 204.231C180.002 204.224 179.555 204.217 179.111 204.209C179.56 204.215 180.005 204.223 180.45 204.231Z" fill="#3A3A3A"/>
<path fill-rule="evenodd" clip-rule="evenodd" d="M227.99 26.848C228.66 26.7736 229.329 26.6993 229.999 26.625C229.356 27.1935 228.662 26.8152 227.99 26.848Z" fill="#3A3A3A"/>
<path fill-rule="evenodd" clip-rule="evenodd" d="M176.768 204.406C176.432 204.393 176.096 204.381 175.763 204.369C176.1 204.381 176.434 204.393 176.768 204.406Z" fill="#3A3A3A"/>
<path fill-rule="evenodd" clip-rule="evenodd" d="M165.192 210.246C165.209 210.805 165.226 211.364 165.243 211.92C165.226 211.36 165.209 210.803 165.192 210.246Z" fill="#3A3A3A"/>
<path fill-rule="evenodd" clip-rule="evenodd" d="M216.272 47.4052C216.719 47.3637 217.165 47.3222 217.611 47.281C217.204 47.595 216.726 47.4112 216.272 47.4052Z" fill="#3A3A3A"/>
<path fill-rule="evenodd" clip-rule="evenodd" d="M69.9705 136.47C70.4168 136.553 70.8637 136.634 71.3097 136.716C70.8634 136.634 70.4168 136.553 69.9705 136.47Z" fill="#3A3A3A"/>
<path fill-rule="evenodd" clip-rule="evenodd" d="M139.606 48.3781C140.163 47.9034 140.721 47.955 141.28 48.3728C140.722 48.3741 140.164 48.3761 139.606 48.3781Z" fill="#3A3A3A"/>
<path fill-rule="evenodd" clip-rule="evenodd" d="M118.658 65.2833C118.674 65.06 118.689 64.8367 118.706 64.6138C118.691 64.8374 118.674 65.0604 118.658 65.2833Z" fill="#3A3A3A"/>
<path fill-rule="evenodd" clip-rule="evenodd" d="M216.098 58.9224C216.103 59.3696 216.107 59.8166 216.112 60.2615C216.108 59.8132 216.103 59.368 216.098 58.9224Z" fill="#3A3A3A"/>
<path fill-rule="evenodd" clip-rule="evenodd" d="M68.3916 128.903C69.1261 129.152 70.6036 129.905 71.4596 129.805C72.1449 129.725 72.7097 128.892 73.3706 128.893C75.15 128.895 74.8199 130.952 73.9601 132.056C71.635 135.043 66.4395 131.804 68.3916 128.903Z" fill="#3A3A3A"/>
<path fill-rule="evenodd" clip-rule="evenodd" d="M75.6542 118.18C78.0807 118.806 76.8721 124.144 74.8323 124.511C72.4305 124.943 72.012 120.603 72.4864 119.034C73.7224 119.769 72.9571 122.389 74.5149 121.664C75.5055 121.203 75.3549 119.072 75.6542 118.18Z" fill="#3A3A3A"/>
</svg>
